<?xml version="1.0" encoding="UTF-8"?>
<svg xmlns="http://www.w3.org/2000/svg" xmlns:xlink="http://www.w3.org/1999/xlink" viewBox="0 0 480 480" width="480px" height="480px">
<g id="surface4799832">
<path style=" stroke:none;fill-rule:nonzero;fill:rgb(25.882354%,81.960785%,25.882354%);fill-opacity:1;" d="M 240 25.5 C 121.539062 25.5 25.5 121.539062 25.5 240 C 25.5 358.460938 121.539062 454.5 240 454.5 C 358.460938 454.5 454.5 358.460938 454.5 240 C 454.5 121.539062 358.460938 25.5 240 25.5 Z M 240 64.5 C 336.925781 64.5 415.5 143.074219 415.5 240 C 415.5 336.925781 336.925781 415.5 240 415.5 C 143.074219 415.5 64.5 336.925781 64.5 240 C 64.5 143.074219 143.074219 64.5 240 64.5 Z M 327.386719 146.382812 C 321.128906 146.503906 315.042969 149.636719 311.390625 155.277344 L 216.730469 301.394531 L 166.914062 244.742188 C 159.804688 236.667969 147.460938 235.871094 139.375 242.988281 C 131.292969 250.105469 130.5 262.433594 137.605469 270.527344 L 204.445312 346.488281 C 208.171875 350.710938 213.515625 353.097656 219.089844 353.097656 C 219.558594 353.097656 220.042969 353.085938 220.519531 353.058594 C 226.613281 352.609375 232.125 349.320312 235.449219 344.203125 L 344.125 176.492188 C 349.976562 167.453125 347.394531 155.386719 338.355469 149.527344 C 334.957031 147.332031 331.144531 146.3125 327.386719 146.382812 Z M 327.386719 146.382812 "/>
</g>
</svg>
